<svg width="252" height="47" viewBox="0 0 252 47" fill="none" xmlns="http://www.w3.org/2000/svg">
<path d="M163.924 25.927C164.315 30.671 167.936 33.167 171.947 33.167C174.638 33.167 177.768 32.0901 179.578 29.9385H180.019L182.71 32.384V32.7743C180.117 36.0511 175.568 37.4219 171.8 37.4219C164.707 37.4219 158.641 32.5792 158.641 24.6549C158.641 17.2679 163.972 11.7891 171.261 11.7891C174.783 11.7891 177.766 13.013 179.968 15.1645C182.218 17.3666 183.589 20.5446 183.589 24.214C183.589 24.8983 183.541 25.4861 183.442 25.927H163.924ZM163.972 22.2576H178.306C178.06 20.4964 177.376 19.0291 176.349 18.0027C175.077 16.6823 173.316 15.9475 171.164 15.9475C167.3 15.9475 164.56 18.393 163.972 22.2576Z" fill="#00263A"/>
<path d="M211.713 3.76584V36.8339H206.919V33.7041C204.914 35.9062 202.076 37.4217 198.457 37.4217C191.217 37.4217 186.131 31.7477 186.131 24.6064C186.131 17.4146 191.219 11.7912 198.457 11.7912C201.587 11.7912 204.278 12.8681 206.381 14.6775V4.05976L211.323 3.47192L211.713 3.76584ZM206.822 24.6064C206.822 19.2746 203.3 16.4365 199.192 16.4365C194.496 16.4365 191.463 20.1058 191.463 24.6064C191.463 29.1071 194.496 32.7764 199.192 32.7764C203.348 32.7741 206.822 29.9383 206.822 24.6064Z" fill="#00263A"/>
<path d="M214.9 32.9695V32.5791L217.592 29.8879H218.032C219.403 31.7479 222.143 33.1647 224.832 33.1647C227.325 33.1647 229.038 31.9913 229.038 30.2783C229.038 27.9798 226.689 27.1485 224.049 26.1198C220.331 24.7513 216.368 23.2335 216.368 18.7834C216.368 14.5767 219.84 11.7385 225.27 11.7385C228.891 11.7385 232.411 13.401 234.076 15.7983V16.2391L231.385 18.8316H230.995C229.527 17.0222 227.277 15.9452 225.174 15.9452C223.022 15.9452 221.555 16.9716 221.555 18.4894C221.555 20.2507 223.61 20.9832 226.446 22.1588C230.604 23.8718 234.223 25.4356 234.223 30.3288C234.223 34.5837 230.457 37.4701 224.928 37.4701C220.724 37.4701 217.004 35.7089 214.9 32.9695Z" fill="#00263A"/>
<path d="M244.102 12.3767H238.818V36.8362H244.102V12.3767Z" fill="#00263A"/>
<path d="M151.703 14.6961C149.526 12.6731 146.699 11.6789 143.737 11.897C140.791 12.1128 138.185 13.5365 136.391 15.6605C136.107 15.323 135.806 14.9992 135.48 14.6961C133.303 12.6731 130.476 11.6789 127.514 11.897C121.978 12.3034 117.643 16.974 117.643 22.5286V36.9328H122.745V22.5286C122.745 19.6307 125.004 17.1944 127.888 16.9832C129.418 16.8706 130.88 17.385 132.008 18.4321C133.188 19.5297 133.865 21.1049 133.865 22.7559V36.9305H138.965V22.7559C138.965 22.7536 138.965 22.7536 138.965 22.7513V22.5286C138.965 19.6307 141.225 17.1944 144.111 16.9832C145.641 16.8706 147.103 17.385 148.231 18.4321C149.411 19.5297 150.088 21.1049 150.088 22.7559V36.9305H155.191V22.7559C155.188 19.6927 153.918 16.7535 151.703 14.6961Z" fill="#00263A"/>
<path d="M251.945 35.378C251.945 36.5537 251.019 37.4469 249.841 37.4469C248.654 37.4469 247.727 36.556 247.727 35.378C247.727 34.1908 248.652 33.2976 249.841 33.2976C251.019 33.2976 251.945 34.1885 251.945 35.378ZM251.419 35.378C251.419 34.4756 250.732 33.789 249.841 33.789C248.95 33.789 248.264 34.4756 248.264 35.3665C248.264 36.2689 248.95 36.944 249.841 36.944C250.735 36.9417 251.419 36.2689 251.419 35.378ZM250.358 35.5364L250.849 36.4389H250.232L249.786 35.6168H249.536V36.4389H248.976V34.246H249.913C250.461 34.246 250.758 34.5077 250.758 34.9532C250.758 35.2287 250.597 35.4331 250.358 35.5364ZM249.534 35.2287H249.91C250.082 35.2287 250.184 35.1139 250.184 34.9785C250.184 34.8292 250.08 34.7167 249.91 34.7167H249.534V35.2287Z" fill="#00263A"/>
<path d="M60.1314 15.479V33.2656C60.1314 36.958 57.1257 39.9637 53.4333 39.9637C49.741 39.9637 46.7352 36.958 46.7352 33.2656V15.479H46.7054C46.7054 8.12646 40.7237 2.14478 33.3711 2.14478C26.0186 2.14478 20.0369 8.12646 20.0369 15.479V33.2656C20.0369 36.958 17.0312 39.9637 13.3388 39.9637C9.64647 39.9637 6.6407 36.958 6.6407 33.2656H0C0 40.6181 5.98169 46.5998 13.3342 46.5998C20.6868 46.5998 26.6684 40.6181 26.6684 33.2656V15.479C26.6684 11.7844 29.6742 8.78089 33.3666 8.78089C37.0589 8.78089 40.0647 11.7867 40.0647 15.479H40.0945V33.2656C40.0945 40.6181 46.0762 46.5998 53.4287 46.5998C60.7813 46.5998 66.763 40.6181 66.763 33.2656V15.479C66.763 11.7844 69.7687 8.78089 73.4611 8.78089C77.1557 8.78089 80.1592 11.7867 80.1592 15.479V33.2656C80.1592 40.6181 86.1409 46.5998 93.4934 46.5998C100.846 46.5998 106.828 40.6181 106.828 33.2656H100.192C100.192 36.958 97.1857 39.9637 93.4934 39.9637C89.7988 39.9637 86.7953 36.958 86.7953 33.2656V15.479C86.7953 8.12646 80.8136 2.14478 73.4611 2.14478C66.1131 2.14478 60.1314 8.12646 60.1314 15.479Z" fill="url(#paint0_linear_3662_2719)"/>
<path d="M247.465 3.89671L247.507 3.59131L245.171 0.0206661L244.848 0L235.876 6.51441L235.855 6.84048L237.419 9.15278H237.702L247.465 3.89671Z" fill="url(#paint1_linear_3662_2719)"/>
<defs>
<linearGradient id="paint0_linear_3662_2719" x1="0" y1="24.3733" x2="106.834" y2="24.3733" gradientUnits="userSpaceOnUse">
<stop stop-color="#0ACC97"/>
<stop offset="1" stop-color="#1B63DB"/>
</linearGradient>
<linearGradient id="paint1_linear_3662_2719" x1="237.57" y1="9.30601" x2="246.014" y2="0.862466" gradientUnits="userSpaceOnUse">
<stop stop-color="#0ACC97"/>
<stop offset="0.0846" stop-color="#09C49D"/>
<stop offset="0.4658" stop-color="#04A3B6"/>
<stop offset="0.7845" stop-color="#018FC5"/>
<stop offset="1" stop-color="#0088CA"/>
</linearGradient>
</defs>
</svg>
