<svg width="74" height="74" viewBox="0 0 74 74" fill="none" xmlns="http://www.w3.org/2000/svg">
<circle cx="37" cy="37" r="37" fill="url(#paint0_linear_3745_1984)"/>
<circle cx="37" cy="37" r="22" stroke="white" stroke-width="4"/>
<path d="M36.985 29.79C36.185 29.78 35.435 29.91 34.735 30.18C34.045 30.44 33.48 30.8 33.04 31.26C32.6 31.72 32.38 32.255 32.38 32.865C32.38 33.615 32.585 34.185 32.995 34.575C33.405 34.965 33.955 35.255 34.645 35.445C35.345 35.625 36.125 35.79 36.985 35.94C38.365 36.16 39.64 36.525 40.81 37.035C41.99 37.545 42.935 38.225 43.645 39.075C44.365 39.915 44.725 40.95 44.725 42.18C44.725 43.31 44.425 44.315 43.825 45.195C43.225 46.065 42.42 46.77 41.41 47.31C40.41 47.84 39.305 48.175 38.095 48.315V51.36H35.89V48.315C34.88 48.215 33.92 47.975 33.01 47.595C32.11 47.215 31.325 46.71 30.655 46.08C29.985 45.45 29.5 44.72 29.2 43.89L32.125 42.795C32.295 43.275 32.62 43.705 33.1 44.085C33.59 44.455 34.17 44.745 34.84 44.955C35.52 45.165 36.235 45.27 36.985 45.27C37.785 45.27 38.535 45.14 39.235 44.88C39.945 44.62 40.515 44.26 40.945 43.8C41.385 43.34 41.605 42.8 41.605 42.18C41.605 41.54 41.375 41.015 40.915 40.605C40.465 40.195 39.885 39.87 39.175 39.63C38.475 39.39 37.745 39.21 36.985 39.09C35.515 38.85 34.195 38.5 33.025 38.04C31.865 37.58 30.945 36.935 30.265 36.105C29.595 35.275 29.26 34.195 29.26 32.865C29.26 31.735 29.56 30.73 30.16 29.85C30.76 28.97 31.56 28.265 32.56 27.735C33.57 27.195 34.68 26.86 35.89 26.73V23.64H38.095V26.73C39.075 26.83 40.015 27.07 40.915 27.45C41.825 27.83 42.62 28.335 43.3 28.965C43.98 29.585 44.475 30.325 44.785 31.185L41.83 32.25C41.66 31.76 41.335 31.335 40.855 30.975C40.375 30.605 39.795 30.315 39.115 30.105C38.445 29.895 37.735 29.79 36.985 29.79Z" fill="white"/>
<defs>
<linearGradient id="paint0_linear_3745_1984" x1="-13" y1="74" x2="102.5" y2="74" gradientUnits="userSpaceOnUse">
<stop stop-color="#1B63DB"/>
<stop offset="1" stop-color="#0ACC97"/>
</linearGradient>
</defs>
</svg>
