<svg width="74" height="74" viewBox="0 0 74 74" fill="none" xmlns="http://www.w3.org/2000/svg">
<circle cx="37" cy="37" r="37" fill="url(#paint0_linear_3745_1983)"/>
<path d="M42.3787 38.4737C42.3787 37.984 42.7798 37.5873 43.2747 37.5873H46.4014C46.8957 37.5873 47.2969 37.984 47.2969 38.4737V41.5696C47.2969 42.06 46.8957 42.4568 46.4014 42.4568H43.2747C42.7798 42.4568 42.3787 42.06 42.3787 41.5696V38.4737Z" fill="white"/>
<path d="M34.5647 38.4737C34.5647 37.984 34.9659 37.5873 35.4598 37.5873H38.5869C39.0812 37.5873 39.4824 37.984 39.4824 38.4737V41.5696C39.4824 42.06 39.0812 42.4568 38.5869 42.4568H35.4598C34.9659 42.4568 34.5647 42.06 34.5647 41.5696V38.4737Z" fill="white"/>
<path d="M26.7498 38.4737C26.7498 37.984 27.151 37.5873 27.6453 37.5873H30.772C31.2669 37.5873 31.668 37.984 31.668 38.4737V41.5696C31.668 42.06 31.2669 42.4568 30.772 42.4568H27.6453C27.151 42.4568 26.7498 42.06 26.7498 41.5696V38.4737Z" fill="white"/>
<path d="M42.3787 46.2184C42.3787 45.7279 42.7798 45.3315 43.2747 45.3315H46.4014C46.8957 45.3315 47.2969 45.7279 47.2969 46.2184V49.3137C47.2969 49.8038 46.8957 50.2006 46.4014 50.2006H43.2747C42.7798 50.2006 42.3787 49.8037 42.3787 49.3137V46.2184Z" fill="white"/>
<path d="M34.5647 46.2184C34.5647 45.7279 34.9659 45.3315 35.4598 45.3315H38.5869C39.0812 45.3315 39.4824 45.7279 39.4824 46.2184V49.3137C39.4824 49.8038 39.0812 50.2006 38.5869 50.2006H35.4598C34.9659 50.2006 34.5647 49.8037 34.5647 49.3137V46.2184Z" fill="white"/>
<path d="M26.7498 46.2184C26.7498 45.7279 27.151 45.3315 27.6449 45.3315H30.772C31.2669 45.3315 31.668 45.7279 31.668 46.2184V49.3137C31.668 49.8038 31.2669 50.2006 30.772 50.2006H27.6449C27.151 50.2006 26.7498 49.8037 26.7498 49.3137V46.2184Z" fill="white"/>
<path fill-rule="evenodd" clip-rule="evenodd" d="M21.1602 25.9897V21.2609C19.2742 21.3172 17.7245 22.8627 17.7245 24.7623V52.4752C17.7245 54.4072 19.3114 55.9999 21.2627 55.9999H52.7859C54.7402 55.9999 56.3242 54.4105 56.3242 52.4752V24.7623C56.3242 22.8627 54.7744 21.3172 52.8884 21.2609V25.9897C52.8884 28.127 51.1376 28.2972 48.9796 28.2972H46.5133C44.3555 28.2972 42.5814 28.127 42.5814 25.9897V21.2439H31.4672V25.9897C31.4672 28.127 29.6931 28.2972 27.535 28.2972H25.0691C22.9111 28.2972 21.1602 28.127 21.1602 25.9897ZM23.8348 52.2646C22.9899 52.2646 22.3051 51.5173 22.3051 50.5962L22.3052 34.8311C22.3052 33.9096 22.9899 33.1624 23.8348 33.1624H50.2804C51.1254 33.1624 51.8101 33.9096 51.8101 34.8311V50.5962C51.8101 51.5173 51.1253 52.2646 50.2804 52.2646H23.8348Z" fill="white"/>
<path d="M48.9875 25.4066H46.5484C45.8081 25.4066 45.2079 24.813 45.2079 24.0799V16.3277C45.2079 15.5944 45.8081 15.0005 46.5484 15.0005H48.9875C49.7279 15.0005 50.3281 15.5944 50.3281 16.3277V24.0799C50.3281 24.813 49.7279 25.4066 48.9875 25.4066Z" fill="white"/>
<path d="M27.5677 25.4066H25.1286C24.3888 25.4066 23.7885 24.813 23.7885 24.0799V16.3277C23.7884 15.5944 24.3887 15.0005 25.1286 15.0005H27.5677C28.3079 15.0005 28.9082 15.5944 28.9082 16.3277V24.0799C28.9082 24.813 28.3079 25.4066 27.5677 25.4066Z" fill="white"/>
<defs>
<linearGradient id="paint0_linear_3745_1983" x1="-13" y1="74" x2="102.5" y2="74" gradientUnits="userSpaceOnUse">
<stop stop-color="#1B63DB"/>
<stop offset="1" stop-color="#0ACC97"/>
</linearGradient>
</defs>
</svg>
