<svg width="24" height="24" viewBox="0 0 24 24" fill="none" xmlns="http://www.w3.org/2000/svg">
<path d="M24 12.0032C23.9994 14.3764 23.295 16.6962 21.9761 18.6691C20.6571 20.6421 18.7828 22.1797 16.59 23.0875C14.3972 23.9952 11.9845 24.2324 9.65696 23.769C7.3294 23.3056 5.19149 22.1625 3.51358 20.4841C1.83567 18.8058 0.693101 16.6676 0.230342 14.3399C-0.232418 12.0122 0.00542198 9.59955 0.913775 7.40702C1.82213 5.2145 3.3602 3.34055 5.33353 2.02212C7.30686 0.703688 9.62681 -1.09664e-05 12.0001 1.28074e-07C13.5762 -0.000230162 15.137 0.310107 16.5933 0.913281C18.0495 1.51645 19.3726 2.40064 20.4869 3.51533C21.6013 4.63001 22.4852 5.95334 23.0879 7.40972C23.6907 8.8661 24.0007 10.427 24 12.0032Z" fill="black" fill-opacity="0.5"/>
</svg>
