<svg width="24" height="24" viewBox="0 0 24 24" fill="none" xmlns="http://www.w3.org/2000/svg">
<path d="M24 12.0032C23.9994 14.3764 23.295 16.6962 21.9761 18.6691C20.6571 20.6421 18.7828 22.1797 16.59 23.0875C14.3972 23.9952 11.9845 24.2324 9.65696 23.769C7.3294 23.3056 5.19149 22.1625 3.51358 20.4841C1.83567 18.8058 0.693101 16.6676 0.230342 14.3399C-0.232418 12.0122 0.00542198 9.59955 0.913775 7.40702C1.82213 5.2145 3.3602 3.34055 5.33353 2.02212C7.30686 0.703688 9.62681 -1.09664e-05 12.0001 1.28074e-07C13.5762 -0.000230162 15.137 0.310107 16.5933 0.913281C18.0495 1.51645 19.3726 2.40064 20.4869 3.51533C21.6013 4.63001 22.4852 5.95334 23.0879 7.40972C23.6907 8.8661 24.0007 10.427 24 12.0032Z" fill="#3552CC"/>
<path d="M10.2529 16.2435C10.1545 16.2439 10.057 16.2247 9.96606 16.1871C9.87513 16.1494 9.79258 16.0941 9.72323 16.0243L6.2239 12.5214C6.15334 12.452 6.09723 12.3693 6.0588 12.2781C6.02037 12.1869 6.00039 12.0889 6.00001 11.99C5.99962 11.891 6.01885 11.7929 6.05657 11.7014C6.09429 11.6099 6.14977 11.5268 6.21979 11.4568C6.28981 11.3869 6.37299 11.3315 6.46453 11.2939C6.55607 11.2562 6.65417 11.2371 6.75314 11.2376C6.85211 11.2381 6.95001 11.2581 7.04118 11.2967C7.13235 11.3352 7.21499 11.3914 7.28433 11.462L10.2268 14.409L16.698 7.23976C16.8322 7.09539 17.0178 7.00955 17.2148 7.00075C17.4118 6.99195 17.6043 7.0609 17.7509 7.19273C17.8975 7.32456 17.9865 7.50872 17.9986 7.70551C18.0107 7.9023 17.945 8.09597 17.8156 8.24477L10.8111 15.9983C10.7424 16.0731 10.6594 16.1333 10.567 16.1754C10.4746 16.2175 10.3746 16.2407 10.2731 16.2435H10.2529Z" fill="white"/>
</svg>
