<svg width="39" height="39" viewBox="0 0 39 39" fill="none" xmlns="http://www.w3.org/2000/svg">
<g clip-path="url(#clip0_3514_1875)">
<path d="M37.5 19.5003C37.4998 23.0602 36.4439 26.5402 34.4659 29.5C32.4879 32.4599 29.6766 34.7668 26.3876 36.129C23.0985 37.4912 19.4793 37.8474 15.9877 37.1528C12.4961 36.4582 9.28892 34.7438 6.77168 32.2265C4.25445 29.7091 2.54024 26.5019 1.84579 23.0104C1.15135 19.5188 1.50787 15.8998 2.87027 12.6108C4.23268 9.32191 6.53979 6.51082 9.49985 4.53304C12.4599 2.55527 15.94 1.49963 19.5 1.49963C21.8639 1.49961 24.2047 1.96522 26.3886 2.86984C28.5726 3.77447 30.5569 5.10041 32.2284 6.77194C33.8999 8.44348 35.2257 10.4279 36.1302 12.6118C37.0347 14.7958 37.5002 17.1365 37.5 19.5003Z" stroke="#3552CC" stroke-width="3"/>
<path d="M28.887 32.0715H29.137V31.8215V31.4606C29.137 25.0737 25.0876 19.7662 19.9874 19.7662C14.8873 19.7662 10.8379 25.0738 10.8379 31.4606V31.8215V32.0715H11.0879H28.887ZM27.9014 30.8487H12.0719C12.3152 25.2961 15.8256 20.988 19.9874 20.988C24.1494 20.988 27.6613 25.2962 27.9014 30.8487Z" fill="#3552CC" stroke="#3552CC" stroke-width="0.5"/>
<path d="M19.9872 6.08683C18.0141 6.08931 16.1226 6.87417 14.7274 8.2693C13.3322 9.66449 12.5473 11.5561 12.5449 13.5292L12.5449 13.5309C12.5484 14.1362 12.6242 14.7389 12.7709 15.3262C12.771 15.3264 12.771 15.3266 12.7711 15.3268L12.8382 15.6009L12.8848 15.7914H13.081H15.3849C15.6726 16.747 16.2512 17.5911 17.0425 18.2044C17.8852 18.8577 18.9211 19.2122 19.9874 19.2122C21.0536 19.2122 22.0896 18.8577 22.9322 18.2044C23.7235 17.5911 24.3022 16.747 24.5898 15.7914H26.8945H27.0913L27.1375 15.6001L27.2037 15.3262C27.4813 14.2298 27.5045 13.0844 27.2716 11.9776C27.0386 10.8704 26.5554 9.83113 25.859 8.93934C25.1625 8.04756 24.2713 7.3269 23.2536 6.83249C22.2359 6.33811 21.1186 6.08306 19.9872 6.08683ZM19.9872 6.08683C19.9871 6.08683 19.987 6.08683 19.9869 6.08683L19.9877 6.33683L19.9874 6.08683C19.9874 6.08683 19.9873 6.08683 19.9872 6.08683ZM24.9911 13.5302C24.9962 12.445 24.7182 11.3772 24.1845 10.4323L24.1845 10.4323L24.1828 10.4294L24.1519 10.3764V10.3748V10.1248H23.9019H16.1143H15.9694L15.8974 10.2505L15.7935 10.4318L15.7929 10.433C15.2582 11.3775 14.9792 12.4452 14.9836 13.5305L14.9836 13.5306C14.9851 13.8789 15.0147 14.2263 15.0719 14.5695H13.8596C13.7985 14.226 13.767 13.8777 13.7656 13.5285L13.7656 13.5282C13.761 12.6556 13.9399 11.7919 14.2908 10.993C14.6416 10.194 15.1566 9.47785 15.8022 8.89088C16.4478 8.3039 17.2097 7.85925 18.0383 7.58582C18.867 7.31238 19.7438 7.21627 20.612 7.30371C21.4802 7.39115 22.3203 7.66019 23.0777 8.09337C23.8352 8.52655 24.4931 9.11417 25.0087 9.8181C25.5243 10.522 25.8861 11.3265 26.0706 12.1794C26.2408 12.9662 26.2566 13.7779 26.1179 14.5695H24.9035C24.9612 14.2263 24.9906 13.8786 24.9911 13.5302ZM24.9911 13.5302C24.9911 13.5304 24.9911 13.5305 24.9911 13.5307L24.7411 13.5295L24.9911 13.5299C24.9911 13.53 24.9911 13.5301 24.9911 13.5302ZM16.2046 13.5298L16.2046 13.5289C16.2021 12.7733 16.3693 12.0275 16.693 11.3462H23.2842C23.6082 12.0272 23.7751 12.7731 23.7716 13.5286V13.5298C23.7716 16.0274 22.0396 17.9895 19.9877 17.9895C17.9367 17.9895 16.2046 16.0275 16.2046 13.5298Z" fill="#3552CC" stroke="#3552CC" stroke-width="0.5"/>
</g>
<defs>
<clipPath id="clip0_3514_1875">
<rect width="39" height="39" fill="white"/>
</clipPath>
</defs>
</svg>
