<svg width="31" height="32" viewBox="0 0 31 32" fill="none" xmlns="http://www.w3.org/2000/svg">
<path d="M10.8836 18.3209C10.8836 17.9387 10.5705 17.629 10.1843 17.629H7.74387C7.35804 17.629 7.04492 17.9387 7.04492 18.3209V20.7373C7.04492 21.12 7.35804 21.4297 7.74387 21.4297H10.1843C10.5705 21.4297 10.8836 21.12 10.8836 20.7373V18.3209Z" fill="#3451CB"/>
<path d="M16.9828 18.3209C16.9828 17.9387 16.6697 17.629 16.2842 17.629H13.8435C13.4577 17.629 13.1445 17.9387 13.1445 18.3209V20.7373C13.1445 21.12 13.4577 21.4297 13.8435 21.4297H16.2842C16.6697 21.4297 16.9828 21.12 16.9828 20.7373V18.3209Z" fill="#3451CB"/>
<path d="M23.0828 18.3209C23.0828 17.9387 22.7697 17.629 22.3838 17.629H19.9435C19.5572 17.629 19.2441 17.9387 19.2441 18.3209V20.7373C19.2441 21.12 19.5572 21.4297 19.9435 21.4297H22.3838C22.7697 21.4297 23.0828 21.12 23.0828 20.7373V18.3209Z" fill="#3451CB"/>
<path d="M10.8836 24.3656C10.8836 23.9827 10.5705 23.6733 10.1843 23.6733H7.74387C7.35804 23.6733 7.04492 23.9827 7.04492 24.3656V26.7815C7.04492 27.164 7.35804 27.4737 7.74387 27.4737H10.1843C10.5705 27.4737 10.8836 27.1639 10.8836 26.7815V24.3656Z" fill="#3451CB"/>
<path d="M16.9828 24.3656C16.9828 23.9827 16.6697 23.6733 16.2842 23.6733H13.8435C13.4577 23.6733 13.1445 23.9827 13.1445 24.3656V26.7815C13.1445 27.164 13.4577 27.4737 13.8435 27.4737H16.2842C16.6697 27.4737 16.9828 27.1639 16.9828 26.7815V24.3656Z" fill="#3451CB"/>
<path d="M23.0828 24.3656C23.0828 23.9827 22.7697 23.6733 22.3842 23.6733H19.9435C19.5572 23.6733 19.2441 23.9827 19.2441 24.3656V26.7815C19.2441 27.164 19.5572 27.4737 19.9435 27.4737H22.3842C22.7697 27.4737 23.0828 27.1639 23.0828 26.7815V24.3656Z" fill="#3451CB"/>
<path fill-rule="evenodd" clip-rule="evenodd" d="M27.4456 8.57712V4.8863C28.9176 4.93024 30.1272 6.13649 30.1272 7.61913V29.2491C30.1272 30.7571 28.8886 32.0002 27.3655 32.0002H2.76164C1.23632 32.0002 0 30.7596 0 29.2491V7.61913C0 6.13649 1.20962 4.93024 2.68167 4.8863V8.57712C2.68167 10.2453 4.0482 10.3782 5.73245 10.3782H7.65743C9.34162 10.3782 10.7263 10.2453 10.7263 8.57712V4.87305H19.4009V8.57712C19.4009 10.2453 20.7856 10.3782 22.4701 10.3782H24.3947C26.079 10.3782 27.4456 10.2453 27.4456 8.57712ZM25.3582 29.0847C26.0177 29.0847 26.5521 28.5015 26.5521 27.7826L26.5521 15.4779C26.5521 14.7587 26.0176 14.1754 25.3582 14.1754H4.71734C4.05784 14.1754 3.52344 14.7587 3.52344 15.4779V27.7826C3.52344 28.5015 4.0579 29.0847 4.71734 29.0847H25.3582Z" fill="#3451CB"/>
<path d="M5.72603 8.122H7.62973C8.20756 8.122 8.67607 7.65872 8.67607 7.0865V1.03587C8.67607 0.463587 8.20756 0 7.62973 0H5.72603C5.14813 0 4.67969 0.463587 4.67969 1.03587V7.0865C4.67969 7.65872 5.14813 8.122 5.72603 8.122Z" fill="#3451CB"/>
<path d="M22.4447 8.122H24.3484C24.9259 8.122 25.3944 7.65872 25.3944 7.0865V1.03587C25.3944 0.463587 24.9259 0 24.3484 0H22.4447C21.8669 0 21.3984 0.463587 21.3984 1.03587V7.0865C21.3984 7.65872 21.8669 8.122 22.4447 8.122Z" fill="#3451CB"/>
</svg>
