<svg width="32" height="32" viewBox="0 0 32 32" fill="none" xmlns="http://www.w3.org/2000/svg">
<path d="M2.82426 15.7097C2.89416 12.3185 4.27434 9.08604 6.6754 6.69019C7.8847 5.4809 9.2912 4.52835 10.8577 3.86602C12.48 3.18138 14.2028 2.83161 15.9777 2.83161C17.7563 2.83161 19.479 3.17766 21.0976 3.86602C22.6641 4.52835 24.0707 5.4809 25.2799 6.69019C25.652 7.06228 25.9981 7.45298 26.3181 7.85856L24.4576 9.31343C24.4133 9.34772 24.3796 9.39382 24.3603 9.44643C24.341 9.49904 24.3369 9.55602 24.3486 9.61083C24.3603 9.66564 24.3872 9.71604 24.4262 9.75624C24.4652 9.79644 24.5148 9.82481 24.5693 9.83808L30.4036 11.2632C30.5897 11.3078 30.772 11.1664 30.772 10.9767L30.8018 4.96741C30.8018 4.71811 30.5153 4.57672 30.3218 4.733L28.5432 6.12462C25.626 2.39254 21.0828 0 15.9814 0C7.25587 0 0.160092 6.99903 9.3045e-05 15.6948C-0.000900084 15.7345 0.00606556 15.774 0.0205797 15.811C0.0350939 15.848 0.0568628 15.8817 0.0846038 15.9101C0.112345 15.9385 0.145497 15.9611 0.182106 15.9766C0.218715 15.992 0.258041 15.9999 0.297766 15.9999H2.53031C2.69031 15.9999 2.82054 15.8697 2.82426 15.7097ZM31.7022 15.9999H29.4697C29.3097 15.9999 29.1757 16.1301 29.172 16.2901C29.1021 19.6813 27.7219 22.9138 25.3209 25.3096C24.1227 26.5128 22.7023 27.4719 21.1386 28.1338C19.5163 28.8184 17.7935 29.1682 16.0186 29.1682C14.2437 29.1682 12.5172 28.8222 10.8986 28.1338C9.3349 27.4719 7.91452 26.5128 6.71633 25.3096C6.34424 24.9375 5.9982 24.5468 5.6782 24.1413L7.53493 22.6864C7.57925 22.6521 7.613 22.606 7.63228 22.5534C7.65157 22.5008 7.65561 22.4438 7.64395 22.389C7.63229 22.3342 7.6054 22.2838 7.56636 22.2436C7.52733 22.2034 7.47774 22.175 7.42331 22.1617L1.58892 20.7366C1.40288 20.692 1.22055 20.8334 1.22055 21.0231L1.19078 27.0398C1.19078 27.2891 1.47729 27.4305 1.67078 27.2743L3.44938 25.8826C6.37401 29.6073 10.9172 31.9998 16.0186 31.9998C24.7441 31.9998 31.8399 25.0008 31.9999 16.305C32.0009 16.2653 31.9939 16.2258 31.9794 16.1888C31.9649 16.1518 31.9431 16.1181 31.9154 16.0897C31.8877 16.0613 31.8545 16.0387 31.8179 16.0233C31.7813 16.0078 31.742 15.9999 31.7022 15.9999Z" fill="#3552CC"/>
<path d="M16.248 10.852C15.68 10.844 15.14 10.936 14.628 11.128C14.124 11.312 13.712 11.564 13.392 11.884C13.072 12.204 12.912 12.572 12.912 12.988C12.912 13.524 13.06 13.928 13.356 14.2C13.66 14.472 14.064 14.672 14.568 14.8C15.072 14.92 15.632 15.032 16.248 15.136C17.368 15.312 18.404 15.608 19.356 16.024C20.308 16.44 21.072 16.996 21.648 17.692C22.224 18.38 22.512 19.224 22.512 20.224C22.512 21.136 22.276 21.948 21.804 22.66C21.332 23.364 20.696 23.94 19.896 24.388C19.104 24.836 18.224 25.12 17.256 25.24V27.688H15.252V25.24C14.444 25.144 13.684 24.94 12.972 24.628C12.26 24.316 11.64 23.908 11.112 23.404C10.592 22.9 10.208 22.312 9.96 21.64L12.708 20.632C12.82 20.952 13.048 21.244 13.392 21.508C13.736 21.772 14.156 21.984 14.652 22.144C15.148 22.304 15.68 22.384 16.248 22.384C16.832 22.384 17.376 22.296 17.88 22.12C18.392 21.936 18.804 21.684 19.116 21.364C19.428 21.036 19.584 20.656 19.584 20.224C19.584 19.784 19.42 19.424 19.092 19.144C18.764 18.856 18.344 18.628 17.832 18.46C17.32 18.292 16.792 18.164 16.248 18.076C15.056 17.892 13.988 17.608 13.044 17.224C12.1 16.84 11.352 16.308 10.8 15.628C10.256 14.948 9.984 14.068 9.984 12.988C9.984 12.076 10.22 11.264 10.692 10.552C11.172 9.84 11.808 9.264 12.6 8.824C13.4 8.376 14.284 8.092 15.252 7.972V5.512H17.256V7.972C18.048 8.068 18.8 8.272 19.512 8.584C20.224 8.896 20.844 9.308 21.372 9.82C21.908 10.324 22.3 10.916 22.548 11.596L19.788 12.592C19.676 12.272 19.448 11.98 19.104 11.716C18.76 11.452 18.34 11.244 17.844 11.092C17.348 10.932 16.816 10.852 16.248 10.852Z" fill="#3552CC"/>
</svg>
