<svg width="64" height="64" viewBox="0 0 64 64" fill="none" xmlns="http://www.w3.org/2000/svg">
<g clip-path="url(#clip0_79_5801)">
<path d="M64.0002 32.0044C63.9985 38.3323 62.1203 44.5176 58.6031 49.7782C55.0858 55.0388 50.0875 59.1385 44.2401 61.5589C38.3927 63.9793 31.9588 64.6117 25.752 63.3762C19.5451 62.1406 13.844 59.0926 9.36958 54.6176C4.89514 50.1425 1.84828 44.4413 0.614247 38.2349C-0.619783 32.0285 0.0144587 25.5956 2.43674 19.7496C4.85902 13.9036 8.96056 8.90702 14.2228 5.39164C19.485 1.87627 25.6716 -2.92402e-05 32.0002 3.41487e-07C36.2034 -0.00061369 40.3656 0.82685 44.2488 2.43511C48.132 4.04337 51.6603 6.40092 54.632 9.37304C57.6037 12.3452 59.9606 15.8736 61.568 19.7568C63.1754 23.64 64.0019 27.8018 64.0002 32.0044Z" fill="#D7263D"/>
<path d="M25.2065 42.9843C24.0494 44.1414 22.1734 44.1414 21.0163 42.9843C19.8592 41.8272 19.8592 39.9512 21.0163 38.794L27.81 32.0003L21.0163 25.2065C19.8592 24.0494 19.8592 22.1734 21.0163 21.0163C22.1734 19.8592 24.0494 19.8592 25.2065 21.0163L32.0003 27.81L38.7941 21.0163C39.9512 19.8592 41.8272 19.8592 42.9843 21.0163C44.1414 22.1734 44.1414 24.0494 42.9843 25.2065L36.1906 32.0003L42.9843 38.794C44.1414 39.9512 44.1414 41.8272 42.9843 42.9843C41.8272 44.1414 39.9512 44.1414 38.7941 42.9843L32.0003 36.1906L25.2065 42.9843Z" fill="white"/>
</g>
<defs>
<clipPath id="clip0_79_5801">
<rect width="64" height="64" fill="white"/>
</clipPath>
</defs>
</svg>
