<svg width="20" height="20" viewBox="0 0 20 20" fill="none" xmlns="http://www.w3.org/2000/svg">
<path d="M19.6587 2.89134C19.4463 2.30796 19.1085 1.77824 18.6692 1.33949C18.2299 0.900741 17.6998 0.563627 17.1162 0.351886C16.0255 -2.98023e-08 15.033 0 13.0179 0H6.96647C4.96766 0 3.95825 -2.98023e-08 2.88446 0.331885C2.29974 0.545292 1.76899 0.884438 1.32966 1.32539C0.89033 1.76633 0.553139 2.29834 0.341886 2.88384C0 3.96762 0 4.96703 0 6.96584V13.0242C0 15.033 0 16.0255 0.331885 17.1093C0.544344 17.6927 0.88211 18.2224 1.3214 18.6611C1.76069 19.0999 2.29082 19.437 2.87446 19.6487C3.95825 19.9906 4.95765 19.9906 6.95959 19.9906H13.0242C15.033 19.9906 16.0324 19.9906 17.1093 19.6587C17.6948 19.4464 18.2266 19.108 18.667 18.6676C19.1074 18.2272 19.4457 17.6954 19.6581 17.1099C20 16.0261 20 15.0267 20 13.0248V6.98272C20 4.9739 20.0006 3.97512 19.6587 2.89134ZM14.5186 6.75209L13.7404 7.52711C13.6645 7.59624 13.5658 7.63508 13.4632 7.63623C13.3605 7.63738 13.261 7.60077 13.1835 7.53336C12.4318 6.902 11.4826 6.55412 10.501 6.5502C9.6903 6.5502 8.88278 6.81709 8.88278 7.55961C8.88278 8.30838 9.74843 8.55902 10.7478 8.9334C12.4991 9.51967 13.9479 10.2516 13.9479 11.9672C13.9479 13.8361 12.4991 15.1186 10.1328 15.2586L9.91469 16.2611C9.89571 16.3523 9.84587 16.4342 9.77358 16.493C9.70129 16.5517 9.61095 16.5837 9.5178 16.5836H8.02338L7.94837 16.5774C7.84199 16.553 7.74939 16.4879 7.69039 16.3961C7.6314 16.3043 7.6107 16.193 7.63274 16.0861L7.86712 15.028C6.96829 14.8024 6.14155 14.352 5.46455 13.7192V13.7092C5.38951 13.6341 5.34736 13.5322 5.34736 13.426C5.34736 13.3199 5.38951 13.218 5.46455 13.1429L6.2977 12.3354C6.37392 12.2649 6.47391 12.2258 6.57771 12.2258C6.68151 12.2258 6.78149 12.2649 6.85771 12.3354C7.62071 13.0556 8.63431 13.4502 9.68343 13.4354C10.7672 13.4354 11.4904 12.9767 11.4904 12.2504C11.4904 11.5241 10.7578 11.3354 9.37467 10.8178C7.9065 10.2934 6.51645 9.55155 6.51645 7.81649C6.51645 5.80143 8.18963 4.81827 10.1753 4.72702L10.3835 3.70137C10.4027 3.60989 10.4532 3.52798 10.5263 3.46979C10.5995 3.41159 10.6906 3.38076 10.7841 3.38261H12.2654L12.3498 3.39261C12.4013 3.40338 12.4502 3.42423 12.4937 3.45396C12.5372 3.48369 12.5744 3.52171 12.6031 3.56585C12.6319 3.60998 12.6516 3.65936 12.6612 3.71115C12.6708 3.76293 12.6701 3.81611 12.6591 3.86762L12.4348 5.01016C13.1903 5.25973 13.891 5.65205 14.4986 6.16582L14.518 6.18519C14.6742 6.35145 14.6748 6.60271 14.5186 6.75209Z" fill="#222B45"/>
</svg>
