<svg width="39" height="39" viewBox="0 0 39 39" fill="none" xmlns="http://www.w3.org/2000/svg">
<g clip-path="url(#clip0_3514_1908)">
<path d="M37.5 19.5003C37.4998 23.0602 36.4439 26.5402 34.4659 29.5C32.4879 32.4599 29.6766 34.7668 26.3876 36.129C23.0985 37.4912 19.4793 37.8474 15.9877 37.1528C12.4961 36.4582 9.28892 34.7438 6.77168 32.2265C4.25445 29.7091 2.54024 26.5019 1.84579 23.0104C1.15135 19.5188 1.50787 15.8998 2.87027 12.6108C4.23268 9.32191 6.53979 6.51082 9.49985 4.53304C12.4599 2.55527 15.94 1.49963 19.5 1.49963C21.8639 1.49961 24.2047 1.96522 26.3886 2.86984C28.5726 3.77447 30.5569 5.10041 32.2284 6.77194C33.8999 8.44348 35.2257 10.4279 36.1302 12.6118C37.0347 14.7958 37.5002 17.1365 37.5 19.5003Z" stroke="#3552CC" stroke-width="3"/>
<path d="M17.39 23.58C17.39 22.44 17.675 21.395 18.245 20.445C18.815 19.495 19.595 18.75 20.585 18.21C21.075 17.95 21.46 17.57 21.74 17.07C22.02 16.56 22.16 16 22.16 15.39C22.16 14.81 22.015 14.285 21.725 13.815C21.445 13.335 21.065 12.96 20.585 12.69C20.105 12.41 19.58 12.27 19.01 12.27C18.43 12.27 17.9 12.41 17.42 12.69C16.94 12.96 16.56 13.335 16.28 13.815C16 14.285 15.86 14.81 15.86 15.39H12.2C12.2 14.14 12.505 13.005 13.115 11.985C13.725 10.955 14.545 10.135 15.575 9.525C16.615 8.915 17.76 8.61 19.01 8.61C20.26 8.61 21.4 8.915 22.43 9.525C23.46 10.135 24.28 10.955 24.89 11.985C25.51 13.005 25.82 14.14 25.82 15.39C25.82 16.67 25.505 17.85 24.875 18.93C24.255 20.01 23.4 20.845 22.31 21.435C21.92 21.645 21.61 21.94 21.38 22.32C21.16 22.7 21.05 23.12 21.05 23.58H17.39ZM19.355 30.39C18.825 30.39 18.375 30.205 18.005 29.835C17.645 29.465 17.465 29.015 17.465 28.485C17.465 27.965 17.645 27.525 18.005 27.165C18.375 26.805 18.825 26.625 19.355 26.625C19.875 26.625 20.315 26.805 20.675 27.165C21.035 27.525 21.215 27.965 21.215 28.485C21.215 29.015 21.035 29.465 20.675 29.835C20.315 30.205 19.875 30.39 19.355 30.39Z" fill="#3552CC"/>
</g>
<defs>
<clipPath id="clip0_3514_1908">
<rect width="39" height="39" fill="white"/>
</clipPath>
</defs>
</svg>
