<svg width="74" height="74" viewBox="0 0 74 74" fill="none" xmlns="http://www.w3.org/2000/svg">
<circle cx="37" cy="37" r="37" fill="url(#paint0_linear_3745_1986)"/>
<path d="M43.5823 61C35.4352 61 28.8105 54.4358 28.8105 46.374C28.8105 38.3122 35.4352 31.7479 43.5823 31.7479C51.7295 31.7479 58.3541 38.3072 58.3541 46.374C58.3541 54.4408 51.7295 61 43.5823 61ZM43.5823 33.9543C36.6703 33.9543 31.044 39.5252 31.044 46.369C31.044 53.2128 36.6703 58.7836 43.5823 58.7836C50.4943 58.7836 56.1207 53.2128 56.1207 46.369C56.1207 39.5252 50.4943 33.9543 43.5823 33.9543Z" fill="white"/>
<path d="M28.5173 38.8563C21.4288 38.8563 15.6562 33.1456 15.6562 26.1221C15.6562 19.0986 21.4238 13.393 28.5173 13.393C35.6108 13.393 41.3733 19.1036 41.3733 26.1221C41.3733 33.1406 35.6057 38.8563 28.5173 38.8563ZM28.5173 15.6043C22.659 15.6043 17.8947 20.3216 17.8947 26.1221C17.8947 31.9226 22.659 36.6399 28.5173 36.6399C34.3756 36.6399 39.1398 31.9226 39.1398 26.1221C39.1398 20.3266 34.3756 15.6043 28.5173 15.6043Z" fill="white"/>
<path d="M30.1391 27.8343C30.1391 27.4 30.0181 27.0556 29.7761 26.796C29.5341 26.5414 29.1207 26.3018 28.5359 26.0872C27.9511 25.8675 27.4519 25.6529 27.0285 25.4382C26.605 25.2236 26.242 24.979 25.9395 24.6995C25.637 24.4199 25.4 24.0954 25.2337 23.7211C25.0673 23.3467 24.9816 22.8974 24.9816 22.3783C24.9816 21.4847 25.269 20.7509 25.8487 20.1769C26.4285 19.6028 27.1948 19.2733 28.1527 19.1735V17.4713H29.4383V19.1935C30.3861 19.3282 31.1272 19.7176 31.6617 20.3665C32.1961 21.0155 32.4633 21.8541 32.4633 22.8874H30.1441C30.1441 22.2535 30.0131 21.7792 29.7459 21.4598C29.4837 21.1453 29.1257 20.9855 28.6821 20.9855C28.2435 20.9855 27.9057 21.1103 27.6637 21.3549C27.4217 21.5995 27.3007 21.944 27.3007 22.3733C27.3007 22.7776 27.4167 23.0971 27.6536 23.3417C27.8906 23.5863 28.3241 23.8359 28.9644 24.0904C29.6047 24.345 30.129 24.5846 30.5424 24.8093C30.9558 25.0339 31.3037 25.2885 31.586 25.573C31.8684 25.8576 32.0851 26.177 32.2364 26.5414C32.3876 26.9058 32.4633 27.3252 32.4633 27.8094C32.4633 28.7079 32.1809 29.4417 31.6112 30.0008C31.0466 30.5599 30.2651 30.8943 29.2669 30.9941V32.5766H27.9914V31.0041C26.8923 30.8893 26.0454 30.5 25.4454 29.846C24.8455 29.1921 24.543 28.3235 24.543 27.2353H26.8621C26.8621 27.8643 27.0133 28.3485 27.3158 28.6829C27.6183 29.0174 28.0519 29.1871 28.6216 29.1871C29.0905 29.1871 29.4635 29.0623 29.7358 28.8177C30.003 28.5881 30.1391 28.2536 30.1391 27.8343Z" fill="white"/>
<path d="M45.4186 48.3008C45.4186 47.8116 45.2825 47.4222 45.0052 47.1327C44.7279 46.8432 44.2641 46.5736 43.6087 46.329C42.9533 46.0844 42.3836 45.8398 41.9097 45.6002C41.4308 45.3606 41.0224 45.0811 40.6846 44.7666C40.3418 44.4521 40.0796 44.0827 39.888 43.6584C39.6965 43.2341 39.6007 42.7299 39.6007 42.1459C39.6007 41.1375 39.9284 40.3089 40.5787 39.6649C41.2291 39.021 42.0963 38.6416 43.1751 38.5368V36.6149H44.6221V38.5618C45.6909 38.7115 46.5278 39.1508 47.1277 39.8846C47.7327 40.6184 48.0352 41.5668 48.0352 42.7299H45.4186C45.4186 42.0111 45.2674 41.477 44.9699 41.1226C44.6725 40.7681 44.2692 40.5884 43.77 40.5884C43.276 40.5884 42.8928 40.7282 42.6206 41.0028C42.3483 41.2823 42.2122 41.6667 42.2122 42.1559C42.2122 42.6101 42.3433 42.9745 42.6105 43.2491C42.8777 43.5236 43.3667 43.8032 44.0927 44.0927C44.8137 44.3772 45.4086 44.6518 45.8724 44.9014C46.3362 45.156 46.7294 45.4405 47.0471 45.76C47.3647 46.0794 47.6117 46.4438 47.7781 46.8532C47.9445 47.2625 48.0302 47.7367 48.0302 48.2808C48.0302 49.2942 47.7126 50.1228 47.0723 50.7518C46.432 51.3858 45.5497 51.7601 44.4305 51.87V53.652H42.9936V51.8799C41.7585 51.7502 40.8006 51.3159 40.12 50.5771C39.4393 49.8383 39.1016 48.8599 39.1016 47.6319H41.7181C41.7181 48.3407 41.8895 48.8898 42.2273 49.2692C42.5702 49.6486 43.0592 49.8383 43.6995 49.8383C44.2288 49.8383 44.6523 49.6985 44.9548 49.424C45.2624 49.1494 45.4186 48.775 45.4186 48.3008Z" fill="white"/>
<defs>
<linearGradient id="paint0_linear_3745_1986" x1="-13" y1="74" x2="102.5" y2="74" gradientUnits="userSpaceOnUse">
<stop stop-color="#1B63DB"/>
<stop offset="1" stop-color="#0ACC97"/>
</linearGradient>
</defs>
</svg>
