<?xml version="1.0" standalone="no"?>
<!DOCTYPE svg PUBLIC "-//W3C//DTD SVG 20010904//EN"
 "http://www.w3.org/TR/2001/REC-SVG-20010904/DTD/svg10.dtd">
<svg version="1.0" xmlns="http://www.w3.org/2000/svg"
 width="500.000000pt" height="500.000000pt" viewBox="0 0 500.000000 500.000000"
 preserveAspectRatio="xMidYMid meet">
<metadata>
Created by potrace 1.14, written by Peter Selinger 2001-2017
</metadata>
<g transform="translate(0.000000,500.000000) scale(0.100000,-0.100000)"
fill="#000000" stroke="none">
<path d="M0 2803 l0 -2198 2277 32 c1253 17 2378 32 2501 32 l222 1 0 2165 0
2165 -2500 0 -2500 0 0 -2197z m4100 1401 c0 -10 -23 -66 -50 -126 -54 -118
-174 -417 -185 -460 -6 -23 3 -38 63 -107 93 -107 163 -214 227 -346 l54 -110
125 -62 c74 -37 132 -72 141 -87 16 -25 95 -542 95 -624 0 -83 -22 -103 -210
-187 -121 -54 -160 -87 -202 -170 -84 -166 -171 -286 -321 -444 -62 -64 -124
-139 -139 -166 -14 -28 -54 -144 -88 -260 -34 -116 -68 -221 -75 -236 -25 -47
-44 -49 -390 -49 -378 0 -350 -8 -413 120 l-37 75 -130 5 c-79 4 -140 2 -155
-5 -17 -7 -36 -33 -60 -84 -57 -119 -28 -111 -420 -111 -307 0 -340 2 -359 18
-15 12 -37 73 -76 207 -83 282 -123 358 -277 525 -123 134 -193 234 -268 385
-109 220 -153 402 -153 640 0 158 20 293 63 426 l27 86 -37 17 c-20 9 -63 39
-94 66 -32 28 -62 47 -67 44 -20 -12 -98 8 -139 35 -39 26 -110 113 -110 134
0 6 13 -8 29 -29 55 -75 117 -114 182 -114 26 0 30 3 24 18 -16 36 -35 118
-35 148 0 47 25 121 54 159 49 64 141 69 197 9 49 -53 17 -194 -62 -270 -16
-15 -29 -31 -29 -36 0 -10 101 -68 120 -68 8 0 26 21 40 47 300 568 961 929
1651 899 225 -9 434 -51 624 -125 l71 -27 64 43 c192 128 441 211 643 212 74
1 87 -1 87 -15z"/>
<path d="M2330 4024 c-14 -2 -59 -9 -100 -15 -72 -10 -226 -45 -242 -55 -4 -3
0 -17 9 -32 9 -15 18 -28 19 -30 1 -1 35 6 75 18 241 66 567 66 808 0 40 -12
74 -19 75 -18 14 23 24 58 18 62 -20 12 -189 49 -282 62 -95 12 -317 17 -380
8z"/>
<path d="M768 3503 c-28 -32 -38 -61 -38 -107 0 -46 25 -126 40 -126 25 0 90
138 90 191 0 49 -62 77 -92 42z"/>
<path d="M3930 3084 c-16 -47 -6 -135 21 -191 25 -52 44 -60 65 -27 23 34 14
138 -17 201 -30 61 -53 67 -69 17z"/>
<path d="M1933 3049 c-89 -16 -180 -83 -226 -166 -38 -71 -47 -150 -47 -418 0
-222 -2 -242 -20 -273 -35 -58 -114 -91 -180 -77 -49 11 -108 70 -121 121
l-11 44 -78 0 c-42 0 -79 -2 -82 -5 -11 -11 15 -112 40 -158 72 -133 240 -202
388 -159 59 17 133 70 168 119 61 86 65 111 66 397 0 167 4 272 12 298 25 84
127 136 212 108 44 -14 92 -67 105 -117 6 -22 11 -147 11 -295 0 -300 6 -330
88 -417 67 -72 144 -105 243 -105 67 0 86 5 143 33 78 38 137 101 166 177 18
50 20 78 20 312 0 157 4 273 11 297 23 83 109 137 194 121 37 -7 97 -53 118
-90 8 -15 14 -112 17 -316 l5 -295 34 -63 c19 -35 51 -77 70 -93 144 -119 353
-106 472 29 43 49 79 135 79 187 l0 35 -78 0 -78 0 -11 -43 c-23 -83 -112
-139 -198 -123 -47 9 -110 70 -124 121 -7 24 -11 140 -11 297 0 234 -2 262
-20 312 -100 266 -482 280 -610 21 -24 -49 -25 -57 -30 -345 -3 -204 -9 -302
-17 -316 -7 -12 -28 -35 -47 -52 -81 -71 -200 -47 -254 52 -15 27 -18 72 -22
321 -5 282 -6 291 -30 340 -65 134 -219 211 -367 184z"/>
</g>
</svg>
